<svg width="38" height="38" viewBox="0 0 38 38" fill="none" xmlns="http://www.w3.org/2000/svg">
<path d="M19 33.2V23.6001" stroke="white" stroke-width="3" stroke-linecap="round" stroke-linejoin="round"/>
<path d="M11.7954 35.6003H26.2047" stroke="white" stroke-width="3" stroke-linecap="round" stroke-linejoin="round"/>
<path fill-rule="evenodd" clip-rule="evenodd" d="M19 23.6001V23.6001C13.695 23.6001 9.39383 19.3017 9.39383 14.0002V4.40023C9.39383 3.07304 10.4697 2.00024 11.7954 2.00024H26.2047C27.5303 2.00024 28.6062 3.07304 28.6062 4.40023V14.0002C28.6062 19.3017 24.3051 23.6001 19 23.6001Z" stroke="white" stroke-width="3"/>
<path d="M9.39383 14.0005H6.99228C4.34097 14.0005 2.18918 11.8501 2.18918 9.20054C2.18918 6.55096 4.34097 4.40057 6.99228 4.40057H9.39383" stroke="white" stroke-width="3"/>
<path d="M28.6062 4.40057H31.0078C33.6591 4.40057 35.8109 6.55096 35.8109 9.20054C35.8109 11.8501 33.6591 14.0005 31.0078 14.0005H28.6062" stroke="white" stroke-width="3"/>
</svg>
