<svg width="41" height="40" viewBox="0 0 41 40" fill="none" xmlns="http://www.w3.org/2000/svg">
<path fill-rule="evenodd" clip-rule="evenodd" d="M35.9387 38.0002H5.06139C3.64103 38.0002 2.48828 36.8508 2.48828 35.4288V12.2859C2.48828 10.8639 3.64103 9.71448 5.06139 9.71448H35.9387C37.359 9.71448 38.5118 10.8639 38.5118 12.2859V35.4288C38.5118 36.8508 37.359 38.0002 35.9387 38.0002Z" stroke="white" stroke-width="3" stroke-linecap="round" stroke-linejoin="round"/>
<path d="M15.3538 7.1431C15.3538 4.30424 17.6593 2.00024 20.5 2.00024C23.3407 2.00024 25.6462 4.30424 25.6462 7.1431" stroke="white" stroke-width="3" stroke-linecap="round" stroke-linejoin="round"/>
<path d="M2.48828 30.2856H38.5118" stroke="white" stroke-width="3" stroke-linecap="round" stroke-linejoin="round"/>
<path fill-rule="evenodd" clip-rule="evenodd" d="M23.0731 22.5715C23.0731 23.9935 21.9204 25.1429 20.5 25.1429C19.0797 25.1429 17.9269 23.9935 17.9269 22.5715C17.9269 21.1495 19.0797 20.0001 20.5 20.0001C21.9204 20.0001 23.0731 21.1495 23.0731 22.5715Z" fill="white"/>
</svg>
