<svg width="39" height="40" viewBox="0 0 39 40" fill="none" xmlns="http://www.w3.org/2000/svg">
<path d="M37.5 20.0002C37.5 29.9414 29.4411 38.0002 19.5 38.0002C9.55886 38.0002 1.5 29.9414 1.5 20.0002C1.5 10.0591 9.55886 2.00024 19.5 2.00024" stroke="white" stroke-width="3" stroke-linecap="round" stroke-linejoin="round"/>
<path fill-rule="evenodd" clip-rule="evenodd" d="M27.2143 25.1431C27.2143 25.1431 24.6429 30.286 19.5 30.286C14.3571 30.286 11.7857 25.1431 11.7857 25.1431H27.2143Z" stroke="white" stroke-width="3" stroke-linecap="round" stroke-linejoin="round"/>
<path fill-rule="evenodd" clip-rule="evenodd" d="M16.9286 14.8576C16.9286 16.2796 15.7791 17.429 14.3571 17.429C12.9351 17.429 11.7857 16.2796 11.7857 14.8576C11.7857 13.4356 12.9351 12.2861 14.3571 12.2861C15.7791 12.2861 16.9286 13.4356 16.9286 14.8576Z" fill="white"/>
<path fill-rule="evenodd" clip-rule="evenodd" d="M27.2143 14.8576C27.2143 16.2796 26.0649 17.429 24.6429 17.429C23.2209 17.429 22.0714 16.2796 22.0714 14.8576C22.0714 13.4356 23.2209 12.2861 24.6429 12.2861C26.0649 12.2861 27.2143 13.4356 27.2143 14.8576Z" fill="white"/>
<path d="M32.3571 2.00024V12.286" stroke="white" stroke-width="3" stroke-linecap="round" stroke-linejoin="round"/>
<path d="M27.2143 7.14325H37.5" stroke="white" stroke-width="3" stroke-linecap="round" stroke-linejoin="round"/>
</svg>
