<svg width="41" height="40" viewBox="0 0 41 40" fill="none" xmlns="http://www.w3.org/2000/svg">
<path fill-rule="evenodd" clip-rule="evenodd" d="M35.9386 38.0002H5.06141C3.63849 38.0002 2.48831 36.8482 2.48831 35.4288V14.8574C2.48831 13.438 3.63849 12.286 5.06141 12.286H35.9386C37.3615 12.286 38.5117 13.438 38.5117 14.8574V35.4288C38.5117 36.8482 37.3615 38.0002 35.9386 38.0002Z" stroke="white" stroke-width="3" stroke-linecap="round" stroke-linejoin="round"/>
<path fill-rule="evenodd" clip-rule="evenodd" d="M33.3655 25.143C33.3655 26.5624 32.2153 27.7144 30.7924 27.7144C29.3695 27.7144 28.2193 26.5624 28.2193 25.143C28.2193 23.7236 29.3695 22.5716 30.7924 22.5716C32.2153 22.5716 33.3655 23.7236 33.3655 25.143Z" fill="white"/>
<path d="M30.7924 12.2859V2.00024L5.0614 12.2859" stroke="white" stroke-width="3" stroke-linecap="round" stroke-linejoin="round"/>
</svg>
