<svg width="40" height="40" viewBox="0 0 40 40" xmlns="http://www.w3.org/2000/svg">
<path fill-rule="evenodd" clip-rule="evenodd" d="M35.4286 38H4.57143C3.152 38 2 36.8506 2 35.4286V4.57143C2 3.14943 3.152 2 4.57143 2H35.4286C36.848 2 38 3.14943 38 4.57143V35.4286C38 36.8506 36.848 38 35.4286 38Z" stroke-width="4" stroke-linecap="round" stroke-linejoin="round"/>
<path d="M20 20V27.7143" stroke-width="4" stroke-linecap="round" stroke-linejoin="round"/>
<path fill-rule="evenodd" clip-rule="evenodd" d="M22.5716 12.2858C22.5716 13.7078 21.4196 14.8572 20.0001 14.8572C18.5807 14.8572 17.4287 13.7078 17.4287 12.2858C17.4287 10.8638 18.5807 9.71436 20.0001 9.71436C21.4196 9.71436 22.5716 10.8638 22.5716 12.2858Z"/>
</svg>
