<svg width="40" height="40" viewBox="0 0 40 40" xmlns="http://www.w3.org/2000/svg">
<path fill-rule="evenodd" clip-rule="evenodd" d="M35.4286 38H4.57143C3.14943 38 2 36.8506 2 35.4286V4.57143C2 3.14943 3.14943 2 4.57143 2H35.4286C36.8506 2 38 3.14943 38 4.57143V35.4286C38 36.8506 36.8506 38 35.4286 38Z" stroke-width="4" stroke-linecap="round" stroke-linejoin="round"/>
<path d="M20 19.9997V12.2854" stroke-width="4" stroke-linecap="round" stroke-linejoin="round"/>
<path fill-rule="evenodd" clip-rule="evenodd" d="M22.5716 27.7143C22.5716 29.1363 21.4221 30.2857 20.0001 30.2857C18.5781 30.2857 17.4287 29.1363 17.4287 27.7143C17.4287 26.2923 18.5781 25.1429 20.0001 25.1429C21.4221 25.1429 22.5716 26.2923 22.5716 27.7143Z"/>
</svg>
