<svg width="12" height="12" viewBox="0 0 12 12" fill="none" xmlns="http://www.w3.org/2000/svg">
<path fill-rule="evenodd" clip-rule="evenodd" d="M4.88857 1L4.82714 1.31214L4.59214 2.45429C4.21643 2.59786 3.87571 2.80143 3.56786 3.04286L2.41929 2.65857L2.11071 2.56286L1.95071 2.83857L1.16 4.16143L1 4.43714L1.23429 4.64214L2.12286 5.39857C2.09071 5.59643 2.04929 5.79214 2.04929 6C2.04929 6.20786 2.09071 6.40357 2.12286 6.60143L1.23429 7.35786L1 7.56286L1.16 7.83857L1.95071 9.16143L2.11071 9.43786L2.41929 9.34143L3.56786 8.95714C3.87571 9.19857 4.21643 9.40214 4.59214 9.54571L4.82714 10.6879L4.88857 11H5.21H6.79H7.11071L7.17286 10.6879L7.40714 9.54571C7.78286 9.40214 8.12357 9.19857 8.43143 8.95714L9.58 9.34143L9.88857 9.43786L10.0493 9.16143L10.8393 7.83857L11 7.56286L10.765 7.35786L9.87643 6.60143C9.90929 6.40357 9.95 6.20786 9.95 6C9.95 5.79214 9.90929 5.59643 9.87643 5.39857L10.765 4.64214L11 4.43714L10.8393 4.16143L10.0493 2.83857L9.88857 2.56286L9.58 2.65857L8.43143 3.04286C8.12357 2.80143 7.78286 2.59786 7.40714 2.45429L7.17286 1.31214L7.11071 1H6.79H5.21H4.88857Z" stroke="white" stroke-linecap="round" stroke-linejoin="round"/>
<path fill-rule="evenodd" clip-rule="evenodd" d="M7.42819 6.00007C7.42819 6.78865 6.78819 7.42865 5.99962 7.42865C5.21104 7.42865 4.57104 6.78865 4.57104 6.00007C4.57104 5.2115 5.21104 4.5715 5.99962 4.5715C6.78819 4.5715 7.42819 5.2115 7.42819 6.00007Z" stroke="white" stroke-linecap="round" stroke-linejoin="round"/>
</svg>
