<svg width="48" height="50" viewBox="0 0 48 50" xmlns="http://www.w3.org/2000/svg">
<path d="M27.1088 9.11995C29.6272 9.11995 31.6688 7.07838 31.6688 4.55998C31.6688 2.04157 29.6272 0 27.1088 0C24.5904 0 22.5488 2.04157 22.5488 4.55998C22.5488 7.07838 24.5904 9.11995 27.1088 9.11995Z"/>
<path d="M24.001 15.3209C24.001 11.6759 32.0899 10.6448 33.121 11.6759C34.9508 13.5057 35.3138 20.4328 35.3138 31.7456C35.3138 38.6727 32.3949 46.3404 31.3057 47.4441C30.2166 48.5478 28.0237 50 24.7417 50C22.1858 50 24.3786 42.6953 24.3786 32.1231C24.3786 21.551 24.001 19.7938 24.001 15.3209Z"/>
<path d="M11.9622 29.1897C13.4289 27.7229 25.1048 21.1589 41.8925 21.1589C48.4565 21.1589 47.5561 22.248 47.5561 26.0819C47.5561 27.9117 47.9192 31.5568 44.2741 31.5568C31.3203 31.5568 15.462 36.8429 14.1695 36.8429C13.0804 36.8429 11.2506 37.2059 11.2506 34.65C11.2506 32.0941 11.0182 30.1336 11.9622 29.1897Z"/>
<path d="M4.65748 35.4052C4.65748 32.8493 9.7693 29.5672 9.7693 31.7601C9.7693 32.7912 9.7693 36.8719 8.49134 38.1499C7.9395 38.7017 6.48728 39.4278 5.76117 39.4278C4.46869 39.4133 4.65748 36.1748 4.65748 35.4052Z"/>
<path d="M1.09955 39.3262C1.09955 37.4964 3.65546 35.318 3.65546 36.7703C3.65546 37.4964 3.84425 39.878 3.2924 40.4153C2.92935 40.7784 2.20324 41.5045 1.82566 41.1414C1.44808 40.7784 1.09955 39.7037 1.09955 39.3262Z"/>
<path d="M0.402452 40.6767C0.750985 40.6767 1.09952 41.7368 1.09952 42.0854C1.09952 42.4339 0.750985 42.7824 0.402452 42.7824C0.0539183 42.7824 -0.294615 40.6767 0.402452 40.6767Z"/>
<path d="M27.1088 9.11995C29.6272 9.11995 31.6688 7.07838 31.6688 4.55998C31.6688 2.04157 29.6272 0 27.1088 0C24.5904 0 22.5488 2.04157 22.5488 4.55998C22.5488 7.07838 24.5904 9.11995 27.1088 9.11995Z"/>
<path d="M24.001 15.3209C24.001 11.6759 32.0899 10.6448 33.121 11.6759C34.9508 13.5057 35.3138 20.4328 35.3138 31.7456C35.3138 38.6727 32.3949 46.3404 31.3057 47.4441C30.2166 48.5478 28.0237 50 24.7417 50C22.1858 50 24.3786 42.6953 24.3786 32.1231C24.3786 21.551 24.001 19.7938 24.001 15.3209Z"/>
<path d="M11.9622 29.1897C13.4289 27.7229 25.1048 21.1589 41.8925 21.1589C48.4565 21.1589 47.5561 22.248 47.5561 26.0819C47.5561 27.9117 47.9192 31.5568 44.2741 31.5568C31.3203 31.5568 15.462 36.8429 14.1695 36.8429C13.0804 36.8429 11.2506 37.2059 11.2506 34.65C11.2506 32.0941 11.0182 30.1336 11.9622 29.1897Z"/>
<path d="M4.65748 35.4052C4.65748 32.8493 9.7693 29.5672 9.7693 31.7601C9.7693 32.7912 9.7693 36.8719 8.49134 38.1499C7.9395 38.7017 6.48728 39.4278 5.76117 39.4278C4.46869 39.4133 4.65748 36.1748 4.65748 35.4052Z"/>
<path d="M1.09955 39.3262C1.09955 37.4964 3.65546 35.318 3.65546 36.7703C3.65546 37.4964 3.84425 39.878 3.2924 40.4153C2.92935 40.7784 2.20324 41.5045 1.82566 41.1414C1.44808 40.7784 1.09955 39.7037 1.09955 39.3262Z"/>
<path d="M0.402452 40.6767C0.750985 40.6767 1.09952 41.7368 1.09952 42.0854C1.09952 42.4339 0.750985 42.7824 0.402452 42.7824C0.0539183 42.7824 -0.294615 40.6767 0.402452 40.6767Z"/>
</svg>
